<?xml version="1.0" encoding="iso-8859-1"?>
<!-- Generator: Adobe Illustrator 19.0.0, SVG Export Plug-In . SVG Version: 6.00 Build 0)  -->
<svg version="1.1" id="Layer_1" xmlns="http://www.w3.org/2000/svg" xmlns:xlink="http://www.w3.org/1999/xlink" x="0px" y="0px"
	 viewBox="0 0 511.999 511.999" style="enable-background:new 0 0 511.999 511.999;" xml:space="preserve">
<path style="fill:#CCCCCC;" d="M365.025,336.417c-13.781,7.992-29.82,12.608-47.078,12.608h-17.816
	c-24.746,0-44.809-20.063-44.809-44.809c0,24.746-20.063,44.809-44.809,44.809h-17.816c-17.257,0-33.308-4.616-47.089-12.608
	c-31.776-18.465-51.459-54.935-45.949-94.357l4.27-30.558l11.468-81.995c4.873-34.895,22.242-65.33,47.19-87.036
	c5.03-4.381,10.372-8.394,15.972-12.027c22.209-14.396,48.62-22.667,76.764-22.667c28.636,0,55.483,8.562,77.927,23.427
	c32.805,21.717,56.21,56.858,61.999,98.302l11.49,82.207l4.247,30.346C416.495,281.482,396.801,317.964,365.025,336.417z"/>
<path style="fill:#B3B3B3;" d="M188.08,336.417c-31.776-18.465-51.459-54.935-45.949-94.357l4.27-30.558l11.468-81.995
	c4.873-34.895,22.242-65.33,47.19-87.036c5.03-4.381,10.372-8.394,15.972-12.027c16.526-10.713,35.382-18.026,55.546-21.071
	c-6.944-1.051-14.042-1.596-21.254-1.596c-28.144,0-54.555,8.271-76.764,22.667c-5.6,3.633-10.942,7.645-15.972,12.027
	c-24.947,21.706-42.316,52.141-47.19,87.036l-11.468,81.995l-4.27,30.558c-5.51,39.422,14.173,75.892,45.949,94.357
	c13.781,7.992,29.832,12.608,47.089,12.608h17.816c3.447,0,6.798-0.402,10.021-1.139
	C208.825,346.062,197.877,342.098,188.08,336.417z"/>
<path style="fill:#4D4D4D;" d="M272.099,224.087c19.035,0,30.938,20.599,21.415,37.086l-15.994,27.708
	c-9.869,17.09-34.526,17.09-44.395,0l-15.994-27.708c-9.523-16.486,2.381-37.086,21.404-37.086H272.099z"/>
<g>
	<path style="fill:#333333;" d="M368.445,174.416l-13.535,14.921c-14.541,16.028-39.31,17.224-55.327,2.694l-14.921-13.535
		c11.702-12.91,27.797-19.459,43.948-19.459C342.827,159.037,357.089,164.111,368.445,174.416z"/>
	<path style="fill:#333333;" d="M225.982,178.496l-14.921,13.535c-16.028,14.53-40.796,13.334-55.327-2.694l-13.535-14.921
		c11.356-10.305,25.618-15.38,39.835-15.38C198.184,159.037,214.279,165.586,225.982,178.496z"/>
</g>
<path style="fill:#EAB96C;" d="M290.362,477.181c-2.794,7.332-8.93,13.267-16.877,15.48c-0.302,0.089-0.715,0.179-1.207,0.268
	c-6.65,1.297-12.641,4.851-16.956,10.082c-4.303-5.231-10.305-8.785-16.944-10.082c-0.503-0.089-0.917-0.179-1.218-0.268
	c-7.925-2.213-14.061-8.137-16.866-15.469c-2.302-6.002-2.37-12.954,0.648-19.56l2.917-6.371c1.364-2.973,2.023-6.147,2.023-9.277
	c0-2.191-0.324-4.37-0.95-6.46c-1.017-3.364-2.828-6.505-5.387-9.132l12.932-13.055c3.13,2.705,7.198,4.337,11.647,4.337
	c4.247,0,8.137-1.487,11.199-3.957c3.063,2.47,6.952,3.957,11.199,3.957c4.448,0,8.528-1.632,11.647-4.337l12.932,13.055
	c-2.56,2.627-4.37,5.767-5.387,9.132c-0.626,2.09-0.95,4.27-0.95,6.46c0,3.141,0.659,6.304,2.023,9.277l2.917,6.371
	C292.72,464.227,292.653,471.168,290.362,477.181z"/>
<g>
	<path style="fill:#F95428;" d="M225.881,441.984c0,3.13-0.659,6.304-2.023,9.277l-2.917,6.371
		c-3.018,6.606-2.951,13.558-0.648,19.56c-20.242-2.984-40.17-8.562-59.283-16.743c-12.898-5.521-25.439-12.217-37.432-20.096
		h-0.011v-42.294h0.011c12.965,8.528,26.568,15.67,40.584,21.415c19.616,8.059,40.059,13.413,60.759,16.05h0.011
		C225.557,437.614,225.881,439.794,225.881,441.984z"/>
	<path style="fill:#F95428;" d="M387.077,398.059v42.294h-0.011c-29.787,19.56-62.815,31.844-96.704,36.829
		c2.291-6.013,2.358-12.954-0.659-19.549l-2.917-6.371c-1.364-2.973-2.023-6.136-2.023-9.277c0-2.191,0.324-4.37,0.95-6.46h0.011
		c35.498-4.527,70.203-17.012,101.343-37.466L387.077,398.059L387.077,398.059z"/>
</g>
<path style="fill:#B3B3B3;" d="M387.066,398.059c-31.139,20.454-65.844,32.939-101.343,37.466h-0.011
	c1.017-3.364,2.828-6.505,5.387-9.132l-12.932-13.055c-3.118,2.705-7.198,4.337-11.647,4.337c-4.247,0-8.137-1.487-11.199-3.957
	c-3.063,2.47-6.952,3.957-11.199,3.957c-4.448,0-8.517-1.632-11.647-4.337l-12.932,13.055c2.56,2.627,4.37,5.767,5.387,9.132h-0.011
	c-15.581-1.99-31.005-5.51-46.038-10.562c-19.236-6.46-37.834-15.424-55.304-26.903h-0.011
	c6.617-11.043,11.904-24.657,16.084-38.594c2.314-7.712,4.281-15.514,5.957-23.047c12.194,7.064,26.154,11.501,41.165,12.418
	c1.956,0.134,3.934,0.19,5.924,0.19h17.816c24.746,0,44.809-20.063,44.809-44.809c0,24.746,20.063,44.809,44.809,44.809h17.816
	c17.257,0,33.297-4.616,47.078-12.608c1.677,7.533,3.655,15.335,5.969,23.047C375.174,373.402,380.449,387.027,387.066,398.059z"/>
<path style="fill:#808080;" d="M155.566,15.769l22.991,14.676c-5.6,3.633-10.942,7.645-15.972,12.027
	c-24.947,21.706-42.316,52.141-47.19,87.036l-11.468,81.995l-24.299-14.005c-31.184-17.984-41.478-58.098-22.801-88.869
	l49.392-81.38C116.525,10.247,138.812,5.072,155.566,15.769z"/>
<path style="fill:#E6E6E6;" d="M455.392,108.628c18.677,30.771,8.383,70.885-22.801,88.869l-24.299,14.005l-1.554,0.212
	l-11.49-82.207c-5.79-41.445-29.195-76.585-61.999-98.302l0.414-0.749l23.002-14.687c16.754-10.696,39.03-5.521,49.347,11.479
	L455.392,108.628z"/>
<path style="fill:#E54728;" d="M164.161,419.474l-3.152,40.975c-12.898-5.521-25.439-12.217-37.432-20.096h-0.011v-42.294h0.011
	C136.543,406.587,150.145,413.729,164.161,419.474z"/>
<path style="fill:#999999;" d="M365.025,336.417c-13.781,7.992-29.82,12.608-47.078,12.608h-17.816
	c-24.746,0-44.809-20.063-44.809-44.809c0,24.746-20.063,44.809-44.809,44.809h-17.816c-1.99,0-3.968-0.056-5.924-0.19
	c-15.011-0.917-28.971-5.354-41.165-12.418c-4.694,21.136-11.758,44.496-22.041,61.642h0.011
	c17.47,11.479,36.068,20.443,55.304,26.903l5.133-49.517c2.857,0.26,5.751,0.405,8.682,0.405h17.816
	c24.746,0,44.809-20.063,44.809-44.809c0,24.746,20.063,44.809,44.809,44.809h17.816c17.257,0,33.297-4.616,47.078-12.608
	c2.045-1.185,4.035-2.448,5.969-3.778C368.68,351.752,366.701,343.95,365.025,336.417z"/>
<g>
	<circle style="fill:#FFFFFF;" cx="338.084" cy="171.49" r="8.383"/>
	<circle style="fill:#FFFFFF;" cx="197.252" cy="171.49" r="8.383"/>
	<circle style="fill:#FFFFFF;" cx="272.876" cy="248.992" r="8.383"/>
</g>
<path d="M263.661,461.144h-16.9c-4.63,0-8.383,3.753-8.383,8.383s3.753,8.383,8.383,8.383h16.9c4.63,0,8.383-3.753,8.383-8.383
	S268.29,461.144,263.661,461.144z"/>
<path d="M263.661,440.489h-16.9c-4.63,0-8.383,3.753-8.383,8.383s3.753,8.383,8.383,8.383h16.9c4.63,0,8.383-3.753,8.383-8.383
	S268.29,440.489,263.661,440.489z"/>
<path d="M462.448,104.885l-49.382-81.381c-6.169-10.164-15.942-17.246-27.521-19.94c-11.579-2.694-23.48-0.655-33.503,5.745
	l-19.31,12.328C309.381,7.467,282.709,0,255.211,0c-27.144,0-53.545,7.293-76.707,21.141L159.967,9.308
	c-10.028-6.401-21.932-8.439-33.519-5.742c-11.578,2.697-21.347,9.779-27.505,19.938l-49.392,81.38
	c-10.211,16.825-13.142,36.59-8.252,55.656c4.891,19.07,16.977,34.989,34.034,44.826l19.402,11.183l-3.489,24.956
	c-2.177,15.574-0.839,30.975,3.973,45.773c1.433,4.403,6.162,6.81,10.565,5.38c4.403-1.432,6.811-6.162,5.38-10.565
	c-4.02-12.358-5.135-25.233-3.313-38.267l15.737-112.553c4.434-31.746,20.198-60.822,44.393-81.874
	c4.671-4.07,9.727-7.875,15.025-11.313c21.515-13.948,46.482-21.32,72.204-21.32c26.189,0,51.535,7.618,73.299,22.035
	c31.797,21.05,53.055,54.754,58.325,92.473l15.737,112.553c4.841,34.63-11.594,68.367-41.864,85.945
	c-12.948,7.508-27.773,11.477-42.873,11.477H300.02c-18.472,0-33.766-13.825-36.105-31.669c8.666-2.251,16.102-7.845,20.755-15.901
	l15.993-27.707c5.985-10.363,5.989-22.739,0.006-33.102c-5.984-10.368-16.706-16.559-28.68-16.559h-33.565
	c-11.968,0-22.685,6.189-28.669,16.555c-5.983,10.366-5.981,22.741,0.004,33.103l15.994,27.708v0.001
	c4.652,8.055,12.088,13.649,20.754,15.899c-2.339,17.844-17.633,31.669-36.105,31.669h-17.816c-15.107,0-29.937-3.969-42.878-11.473
	c-10.956-6.366-20.55-15.279-27.744-25.777c-2.617-3.819-7.835-4.792-11.654-2.175c-3.819,2.618-4.793,7.835-2.175,11.654
	c7.41,10.81,16.958,20.212,27.845,27.479c-5.362,22.378-12.136,40.762-19.714,53.397c-0.795,1.326-1.186,2.818-1.185,4.311h-0.009
	v42.294c0,3.009,1.59,5.649,3.976,7.127c29.146,19.104,61.252,31.626,95.48,37.292c4.374,7.726,11.64,13.539,20.212,15.949
	c0.567,0.164,1.199,0.309,1.978,0.448c4.719,0.936,8.985,3.479,12.02,7.169c1.592,1.934,3.963,3.056,6.468,3.057
	c0.002,0,0.003,0,0.006,0c2.503,0,4.874-1.118,6.467-3.049c3.06-3.711,7.356-6.264,11.99-7.168c0.8-0.145,1.443-0.292,2.011-0.456
	c8.585-2.406,15.856-8.221,20.227-15.952c13.772-2.283,27.4-5.732,40.569-10.293c4.375-1.514,6.693-6.289,5.177-10.665
	c-1.516-4.375-6.288-6.693-10.665-5.177c-10.007,3.465-20.296,6.245-30.711,8.308c-0.164-4.361-1.186-8.697-3.064-12.8l-2.919-6.374
	c-0.704-1.537-1.098-3.163-1.211-4.84c29.96-4.634,59.145-14.866,85.499-29.923v22.764c-6.895,4.339-14.048,8.336-21.32,11.908
	c-4.155,2.042-5.868,7.065-3.827,11.221c1.457,2.966,4.434,4.688,7.53,4.688c1.241,0,2.501-0.277,3.691-0.861
	c9.125-4.483,18.076-9.588,26.61-15.175c2.446-1.464,4.082-4.14,4.082-7.197v-42.294c0-0.06-0.015-0.117-0.02-0.177
	c-0.029-1.414-0.407-2.838-1.184-4.133c-7.676-12.806-14.298-30.758-19.715-53.4c32.782-21.762,50.244-60.116,44.746-99.451
	l-15.737-112.551c-5.368-38.425-25.47-73.147-55.759-96.967l13.385-8.546c6.188-3.951,13.533-5.211,20.682-3.546
	c7.147,1.663,13.18,6.033,16.987,12.308l49.382,81.381c7.852,12.935,10.105,28.132,6.345,42.791
	c-3.761,14.663-13.054,26.903-26.168,34.466c-4.01,2.313-5.386,7.439-3.074,11.45c1.553,2.691,4.371,4.196,7.27,4.196
	c1.421,0,2.861-0.362,4.18-1.122c17.054-9.836,29.141-25.754,34.032-44.825C475.59,141.474,472.659,121.708,462.448,104.885z
	 M156.972,36.752c-27.243,23.704-44.997,56.448-49.99,92.199l-9.744,69.689l-13.532-7.799
	c-13.114-7.562-22.407-19.804-26.168-34.466c-3.76-14.66-1.507-29.856,6.345-42.793l49.394-81.384
	c3.8-6.269,9.828-10.639,16.974-12.304c7.154-1.664,14.503-0.407,20.694,3.545l12.528,7.997
	C161.251,33.162,159.069,34.926,156.972,36.752z M240.274,285.295l-15.996-27.71c-2.955-5.115-2.956-11.223-0.003-16.338
	c2.954-5.117,8.243-8.172,14.149-8.172h33.565c5.913,0,11.206,3.056,14.16,8.175c2.952,5.114,2.951,11.221-0.006,16.336
	l-15.994,27.707c-3.12,5.402-8.705,8.628-14.939,8.628C248.976,293.921,243.393,290.697,240.274,285.295z M131.838,413.615
	c26.346,15.054,55.53,25.285,85.498,29.92c-0.115,1.67-0.515,3.327-1.21,4.843l-2.921,6.379c-1.877,4.109-2.897,8.445-3.06,12.802
	c-27.862-5.499-54.14-15.955-78.307-31.181V413.615z M282.417,474.803c-1.934,5.074-6.155,8.958-11.336,10.401
	c-0.116,0.029-0.257,0.055-0.52,0.103c-5.589,1.09-10.837,3.439-15.347,6.81c-4.503-3.369-9.751-5.717-15.342-6.809
	c-0.046-0.009-0.092-0.018-0.137-0.026c-0.154-0.027-0.288-0.051-0.304-0.053c-0.042-0.012-0.086-0.025-0.129-0.037
	c-5.129-1.433-9.35-5.317-11.293-10.397c-1.627-4.241-1.468-8.884,0.443-13.067l2.916-6.368c1.823-3.975,2.786-8.391,2.786-12.771
	c0-2.998-0.438-5.98-1.309-8.886c-0.614-2.03-1.441-3.994-2.458-5.852l3.286-3.317c3.241,1.393,6.757,2.128,10.339,2.128
	c3.883,0,7.714-0.874,11.199-2.518c3.484,1.644,7.317,2.518,11.199,2.518c3.586,0,7.102-0.734,10.341-2.125l3.284,3.315
	c-1.018,1.863-1.848,3.832-2.465,5.871c-0.864,2.886-1.303,5.868-1.303,8.866c0,4.443,0.937,8.739,2.784,12.768l2.916,6.369
	C283.88,465.902,284.039,470.546,282.417,474.803z M299.222,425.433c-0.3-1.586-1.058-3.103-2.278-4.334l-12.932-13.055
	c-3.107-3.136-8.113-3.326-11.449-0.434c-1.7,1.474-3.886,2.286-6.154,2.286c-2.756,0-4.75-1.141-5.936-2.098
	c-3.07-2.477-7.453-2.477-10.525,0c-1.187,0.957-3.181,2.099-5.937,2.099c-2.899,0-4.953-1.248-6.165-2.296
	c-3.336-2.883-8.335-2.69-11.436,0.443l-12.932,13.055c-1.221,1.232-1.978,2.748-2.279,4.336
	c-26.992-5.247-53.111-15.329-76.584-29.634c6.359-12.428,11.91-28.013,16.581-46.503c12.96,5.717,27.072,8.716,41.39,8.716h17.816
	c18.803,0,35.348-9.817,44.809-24.585c9.461,14.768,26.005,24.585,44.809,24.585h17.816c14.313,0,28.422-2.998,41.383-8.717
	c4.681,18.507,10.233,34.093,16.581,46.508C352.32,410.106,326.202,420.188,299.222,425.433z"/>
<path d="M361.008,195.576l13.535-14.921c3.109-3.429,2.852-8.729-0.576-11.84c-12.475-11.32-28.622-17.555-45.468-17.555
	c-19.082,0-37.364,8.097-50.158,22.212c-3.108,3.429-2.849,8.729,0.579,11.839l14.921,13.534c9.089,8.245,20.523,12.31,31.925,12.31
	C338.723,211.155,351.636,205.905,361.008,195.576z M348.59,184.31c-11.406,12.572-30.915,13.523-43.486,2.118l-8.196-7.435
	c8.924-7.042,20.063-10.968,31.591-10.968c9.844,0,19.37,2.83,27.53,8.084L348.59,184.31z"/>
<path d="M231.503,185.311c3.428-3.109,3.687-8.41,0.579-11.839c-12.796-14.116-31.078-22.212-50.158-22.212
	c-16.846,0-32.994,6.235-45.468,17.555c-3.428,3.111-3.685,8.411-0.576,11.84l13.533,14.919c8.531,9.411,20.217,14.933,32.905,15.55
	c0.79,0.039,1.576,0.057,2.361,0.057c11.825,0,23.076-4.331,31.903-12.334L231.503,185.311z M205.319,186.426
	c-6.095,5.526-13.968,8.356-22.188,7.95c-8.213-0.398-15.776-3.972-21.299-10.065l-7.439-8.202c8.16-5.254,17.688-8.084,27.53-8.084
	c11.527,0,22.667,3.925,31.591,10.968L205.319,186.426z"/>
<circle cx="160.346" cy="267.736" r="8.383"/>
<circle cx="160.346" cy="303.368" r="8.383"/>
<circle cx="186.858" cy="285.552" r="8.383"/>
<circle cx="323.576" cy="285.552" r="8.383"/>
<circle cx="350.077" cy="303.368" r="8.383"/>
<circle cx="350.077" cy="267.736" r="8.383"/>
<g>
</g>
<g>
</g>
<g>
</g>
<g>
</g>
<g>
</g>
<g>
</g>
<g>
</g>
<g>
</g>
<g>
</g>
<g>
</g>
<g>
</g>
<g>
</g>
<g>
</g>
<g>
</g>
<g>
</g>
</svg>
